<svg width="12" height="19" viewBox="0 0 12 19" fill="none" xmlns="http://www.w3.org/2000/svg">
<path d="M2.08 18.264C2.752 18.264 3.344 17.688 3.344 16.984C3.344 16.392 2.944 15.896 2.416 15.752C2.656 14.776 2.976 13.576 3.392 12.744C4.512 13.24 5.84 13.544 7.072 13.544C10.128 13.544 11.856 12.056 11.856 9.704C11.856 8.136 10.72 7.032 9.136 7.032C6.416 7.032 4.752 8.632 3.088 11.928C2.048 11.4 1.28 10.712 1.168 9.928C1.152 9.816 1.136 9.704 1.136 9.576C1.136 9.192 1.264 8.824 1.472 8.44H1.488C1.872 8.632 2.272 8.712 2.64 8.712C5.12 8.712 7.12 5.032 7.28 4.248C7.296 4.168 7.296 4.104 7.296 4.024C7.296 3.576 7.104 3.112 6.784 2.712C6.592 2.36 6.368 1.944 6 1.688C5.952 1.656 5.904 1.64 5.872 1.64C5.648 1.64 5.44 2.008 5.44 2.296C5.44 2.424 5.472 2.536 5.568 2.584C5.888 2.744 6.24 2.952 6.496 3C6.752 3.368 6.896 3.768 6.864 4.12C6.816 4.648 5.808 6.52 4.448 7.56C2.912 7.176 1.84 6.584 0.704 5.192C0.944 3.624 1.856 1.992 2.208 1.672C2.48 1.432 2.88 1.32 3.328 1.336C3.44 1.48 3.888 1.704 4.256 1.8C4.544 1.88 4.848 1.464 4.848 1.176C4.848 1.064 4.8 0.967999 4.672 0.935999C4.512 0.888 4.352 0.888 4.192 0.888C3.968 0.888 3.76 0.903999 3.552 0.935999C2.896 0.872 2.304 1.016 1.904 1.352C1.44 1.752 0.16 4.072 0.16 6.024C0.16 6.824 0.384 7.576 0.96 8.088C0.672 8.568 0.512 9.064 0.512 9.544C0.512 9.72 0.544 9.896 0.576 10.072C0.736 11 1.616 11.848 2.816 12.472C2.368 13.384 2 14.632 1.792 15.736C1.184 15.848 0.768 16.36 0.768 16.984C0.768 17.688 1.328 18.264 2.08 18.264ZM1.776 8.024C0.96 7.592 0.64 6.808 0.64 5.928C0.64 5.864 0.64 5.784 0.64 5.72C1.568 6.872 2.672 7.464 4.032 7.848C3.6 8.088 3.152 8.248 2.704 8.248C2.4 8.248 2.08 8.184 1.776 8.024ZM9.04 7.624C10.4 7.624 11.2 8.536 11.2 9.784C11.2 11.848 9.568 12.904 7.248 12.904C6.112 12.904 4.784 12.632 3.648 12.168C5.424 8.856 6.784 7.624 9.04 7.624ZM2.048 17.864C1.584 17.864 1.168 17.464 1.168 17C1.168 16.504 1.584 16.12 2.048 16.12C2.512 16.12 2.896 16.504 2.896 17C2.896 17.464 2.512 17.864 2.048 17.864Z" fill="black"/>
</svg>
